<svg xmlns="http://www.w3.org/2000/svg" xmlns:xlink="http://www.w3.org/1999/xlink" width="500" zoomAndPan="magnify" viewBox="0 0 375 374.999991" height="500" preserveAspectRatio="xMidYMid meet" version="1.0"><defs><filter x="0%" y="0%" width="100%" height="100%" id="8b79a273a6"><feColorMatrix values="0 0 0 0 1 0 0 0 0 1 0 0 0 0 1 0 0 0 1 0" color-interpolation-filters="sRGB"/></filter><mask id="b3dce9b450"><g filter="url(#8b79a273a6)"><rect x="-37.5" width="450" fill="#000000" y="-37.499999" height="449.999989" fill-opacity="0.4471"/></g></mask><clipPath id="7e16d40da6"><path d="M 0.488281 0.488281 L 230.738281 0.488281 L 230.738281 230.738281 L 0.488281 230.738281 Z M 0.488281 0.488281 " clip-rule="nonzero"/></clipPath><clipPath id="7831caa4c2"><rect x="0" width="231" y="0" height="231"/></clipPath><mask id="5987112295"><g filter="url(#8b79a273a6)"><rect x="-37.5" width="450" fill="#000000" y="-37.499999" height="449.999989" fill-opacity="0.4471"/></g></mask><clipPath id="c37697dbc8"><path d="M 1.121094 1.121094 L 121.871094 1.121094 L 121.871094 121.871094 L 1.121094 121.871094 Z M 1.121094 1.121094 " clip-rule="nonzero"/></clipPath><clipPath id="6c5cfcd637"><rect x="0" width="122" y="0" height="122"/></clipPath><mask id="4e1bbb93fb"><g filter="url(#8b79a273a6)"><rect x="-37.5" width="450" fill="#000000" y="-37.499999" height="449.999989" fill-opacity="0.4471"/></g></mask><clipPath id="f08565eb7e"><rect x="0" width="375" y="0" height="375"/></clipPath></defs><g mask="url(#b3dce9b450)"><g transform="matrix(1, 0, 0, 1, 72, 72)"><g clip-path="url(#7831caa4c2)"><g clip-path="url(#7e16d40da6)"><path fill="#ffffff" d="M 115.613281 230.738281 C 52.152344 230.738281 0.488281 179.074219 0.488281 115.613281 C 0.488281 52.152344 52.152344 0.488281 115.613281 0.488281 C 179.074219 0.488281 230.738281 52.152344 230.738281 115.613281 C 230.738281 179.074219 179.074219 230.738281 115.613281 230.738281 Z M 115.613281 2.191406 C 53.0625 2.191406 2.191406 53.0625 2.191406 115.613281 C 2.191406 178.167969 53.0625 229.039062 115.613281 229.039062 C 178.167969 229.039062 229.039062 178.167969 229.039062 115.613281 C 229.039062 53.0625 178.167969 2.191406 115.613281 2.191406 Z M 115.613281 2.191406 " fill-opacity="1" fill-rule="nonzero"/></g></g></g></g><g mask="url(#5987112295)"><g transform="matrix(1, 0, 0, 1, 126, 126)"><g clip-path="url(#6c5cfcd637)"><g clip-path="url(#c37697dbc8)"><path fill="#ffffff" d="M 61.496094 121.871094 C 28.214844 121.871094 1.121094 94.773438 1.121094 61.496094 C 1.121094 28.214844 28.214844 1.121094 61.496094 1.121094 C 94.773438 1.121094 121.871094 28.214844 121.871094 61.496094 C 121.871094 94.773438 94.773438 121.871094 61.496094 121.871094 Z M 61.496094 2.011719 C 28.691406 2.011719 2.011719 28.691406 2.011719 61.496094 C 2.011719 94.300781 28.691406 120.976562 61.496094 120.976562 C 94.300781 120.976562 120.976562 94.300781 120.976562 61.496094 C 120.976562 28.691406 94.300781 2.011719 61.496094 2.011719 Z M 61.496094 2.011719 " fill-opacity="1" fill-rule="nonzero"/></g></g></g></g><g mask="url(#4e1bbb93fb)"><g transform="matrix(1, 0, 0, 1, 0, 0)"><g clip-path="url(#f08565eb7e)"><path fill="#ffffff" d="M 187.5 375 C 84.144531 375 0 290.855469 0 187.5 C 0 84.144531 84.144531 0 187.5 0 C 290.855469 0 375 84.144531 375 187.5 C 375 290.855469 290.855469 375 187.5 375 Z M 187.5 2.769531 C 85.621094 2.769531 2.769531 85.621094 2.769531 187.5 C 2.769531 289.378906 85.621094 372.230469 187.5 372.230469 C 289.378906 372.230469 372.230469 289.378906 372.230469 187.5 C 372.230469 85.621094 289.378906 2.769531 187.5 2.769531 Z M 187.5 2.769531 " fill-opacity="1" fill-rule="nonzero"/></g></g></g></svg>